<svg width="40" height="40" viewBox="0 0 40 40" fill="none" xmlns="http://www.w3.org/2000/svg">
  <!-- 外圆环 -->
  <circle cx="20" cy="20" r="18" stroke="#2563eb" stroke-width="2" fill="none"/>
  
  <!-- 内心形 -->
  <path d="M20 28c-6-4-10-8-10-12 0-3 2.5-5 5-5 1.5 0 3 1 5 3 2-2 3.5-3 5-3 2.5 0 5 2 5 5 0 4-4 8-10 12z" fill="#2563eb"/>
  
  <!-- 连接线 -->
  <line x1="2" y1="20" x2="8" y2="20" stroke="#2563eb" stroke-width="2"/>
  <line x1="32" y1="20" x2="38" y2="20" stroke="#2563eb" stroke-width="2"/>
  
  <!-- 小心形装饰 -->
  <path d="M35 15c-1.5-1-3-2-3-3 0-1 1-2 2-2 0.5 0 1 0.5 1 1 0-0.5 0.5-1 1-1 1 0 2 1 2 2 0 1-1.5 2-3 3z" fill="#f472b6"/>
</svg>